<svg xmlns="http://www.w3.org/2000/svg" viewBox="0 0 900 520">
  <defs>
    <linearGradient id="g" x1="0%" y1="0%" x2="100%" y2="100%">
      <stop offset="0%" stop-color="#f6d27b"/>
      <stop offset="55%" stop-color="#e7ae45"/>
      <stop offset="100%" stop-color="#ffd98d"/>
    </linearGradient>
    <filter id="glow" x="-20%" y="-20%" width="140%" height="140%">
      <feDropShadow dx="0" dy="0" stdDeviation="3" flood-color="#f2c160" flood-opacity="0.7"/>
    </filter>
  </defs>
  <g fill="none" stroke="url(#g)" stroke-width="9" stroke-linecap="round" stroke-linejoin="round" filter="url(#glow)">
    <path d="M90 80c45-35 120 0 116 78"/>
    <path d="M158 135c42 65 120 110 238 116"/>
    <path d="M382 254c67 1 134-14 190-60"/>
    <path d="M414 219c-18 52-7 120 45 161"/>
    <circle cx="500" cy="326" r="98"/>
    <path d="M546 362c-13 33-50 52-83 44"/>
    <path d="M286 188c-8 44-42 76-83 81"/>
    <path d="M248 136c-37-25-87-18-117 15"/>
    <path d="M608 208c35-27 83-24 116 7"/>
    <path d="M649 260c27 40 22 91-10 124"/>
    <path d="M381 180c34-28 79-33 118-14"/>
  </g>
  <circle cx="454" cy="300" r="16" fill="url(#g)" filter="url(#glow)"/>
</svg>
